<svg width="70" height="68" viewBox="0 0 70 68" fill="none" xmlns="http://www.w3.org/2000/svg">
<g clip-path="url(#clip0_11_593)">
<path fill-rule="evenodd" clip-rule="evenodd" d="M12.2281 23.5486C5.52247 23.5486 -0.111502 28.8382 0.00180187 35.2343C0.113012 41.5112 5.55696 46.5416 12.2288 46.5416C15.0937 46.5416 17.7322 45.6142 19.8192 44.0584C21.9064 45.614 24.545 46.5416 27.4099 46.5416C30.2747 46.5416 32.9132 45.6142 35.0003 44.0584C37.0874 45.614 39.726 46.5416 42.591 46.5416C45.4559 46.5416 48.0945 45.6142 50.1814 44.0584C52.2687 45.614 54.9073 46.5416 57.7722 46.5416C64.4432 46.5416 69.8873 41.512 69.9984 35.2343C70.1117 28.8378 64.4776 23.5486 57.7718 23.5486C54.9307 23.5486 52.282 24.498 50.1814 26.0787C48.0803 24.498 45.4314 23.5486 42.5903 23.5486C39.7492 23.5486 37.1008 24.498 34.9999 26.0787C32.8993 24.498 30.2506 23.5486 27.4095 23.5486C24.5684 23.5486 21.9198 24.498 19.819 26.0789C17.7181 24.498 15.0692 23.5486 12.2281 23.5486ZM27.4099 43.9326C25.3106 43.9326 23.3698 43.2894 21.7996 42.2006C23.4219 40.2848 24.4085 37.8695 24.4551 35.2343C24.5036 32.4879 23.4928 29.9457 21.7926 27.9386C23.3758 26.823 25.327 26.1577 27.4095 26.1577C29.4922 26.1577 31.4433 26.823 33.0263 27.9384C31.326 29.9457 30.3149 32.4883 30.3633 35.2345C30.4103 37.8695 31.3971 40.285 33.0198 42.2008C31.4496 43.2896 29.5091 43.9326 27.4099 43.9326ZM21.6859 35.1908C21.7214 33.1852 21.0169 31.3138 19.819 29.8002C18.6211 31.3138 17.9166 33.1852 17.9521 35.1908C17.9864 37.1235 18.6755 38.9046 19.8192 40.3477C20.9626 38.9046 21.6516 37.1237 21.6859 35.1908ZM15.1829 35.2343C15.1343 32.4879 16.1451 29.9457 17.8454 27.9386C16.2622 26.823 14.3108 26.1577 12.2281 26.1577C7.05022 26.1577 2.68386 30.2713 2.77101 35.1908C2.85689 40.039 7.06334 43.9326 12.2288 43.9326C14.3279 43.9326 16.2686 43.2896 17.8388 42.2006C16.2161 40.2848 15.2296 37.8695 15.1829 35.2343ZM39.6361 35.2343C39.6849 32.4879 38.674 29.9457 36.9737 27.9384C38.5566 26.823 40.5078 26.1577 42.5903 26.1577C44.673 26.1577 46.6245 26.823 48.2078 27.9386C46.5075 29.9457 45.4966 32.4879 45.5452 35.2343C45.5918 37.8695 46.5783 40.2848 48.201 42.2006C46.6308 43.2896 44.6901 43.9326 42.591 43.9326C40.4918 43.9326 38.5511 43.2894 36.9807 42.2006C38.6032 40.2848 39.5895 37.8695 39.6361 35.2343ZM48.3143 35.1908C48.2789 33.1852 48.9835 31.3135 50.1814 29.8C51.3795 31.3135 52.0838 33.1852 52.0482 35.1908C52.0138 37.1237 51.3248 38.9046 50.1814 40.3477C49.0378 38.9046 48.3487 37.1235 48.3143 35.1908ZM57.7722 43.9326C55.6729 43.9326 53.7321 43.2894 52.1617 42.2006C53.7842 40.285 54.7705 37.8697 54.8173 35.2345C54.8663 32.4877 53.8555 29.9455 52.1552 27.9384C53.738 26.823 55.6893 26.1577 57.7718 26.1577C62.95 26.1577 67.3165 30.2709 67.2292 35.1908C67.1433 40.0398 62.9369 43.9326 57.7722 43.9326ZM36.8669 35.2521C36.9024 33.2464 36.198 31.375 34.9999 29.8614C33.802 31.375 33.0977 33.2464 33.1331 35.2521C33.1674 37.1847 33.8565 38.9658 35.0001 40.409C36.1435 38.9658 36.8326 37.1849 36.8669 35.2521Z" fill="black"/>
</g>
<defs>
<clipPath id="clip0_11_593">
<rect width="70" height="66.8889" fill="white" transform="translate(0.00012207 0.555542)"/>
</clipPath>
</defs>
</svg>
