<svg width="71" height="70" viewBox="0 0 71 70" fill="none" xmlns="http://www.w3.org/2000/svg">
<path d="M35.3626 6.57617C19.3096 6.57617 6.25146 19.6356 6.25146 35.686C6.25146 51.7363 19.3096 64.7958 35.3626 64.7958C51.4155 64.7958 64.4724 51.7351 64.4724 35.686C64.4724 19.6369 51.4129 6.57617 35.3626 6.57617ZM35.3626 63.9927C19.7576 63.9927 7.05583 51.2909 7.05583 35.686C7.05583 20.0811 19.7576 7.38181 35.3626 7.38181C50.9675 7.38181 63.6667 20.076 63.6667 35.686C63.6667 51.296 50.9713 63.9927 35.3626 63.9927Z" fill="black"/>
<path d="M18.7687 24.2581C18.798 24.281 18.8285 24.3065 18.8565 24.3256C18.8565 24.3256 18.8782 24.3065 18.8794 24.3027C19.4471 23.5938 20.016 22.8823 20.5824 22.1772C20.7898 21.9227 20.9985 21.6592 21.2047 21.3996C21.3049 21.2737 21.3696 21.1232 21.3919 20.9638C21.4143 20.8045 21.3936 20.642 21.332 20.4934C21.2594 20.3377 21.1429 20.2066 20.9969 20.1161C20.8508 20.0257 20.6815 19.9799 20.5098 19.9843C20.3701 19.9926 20.234 20.0322 20.1117 20.1003C19.9895 20.1684 19.8841 20.2632 19.8034 20.3776L19.05 21.3194C18.5409 21.9558 18.0191 22.6048 17.5074 23.2476C17.7734 23.4627 18.042 23.6752 18.308 23.8916C18.462 24.0074 18.6122 24.1321 18.7687 24.2581Z" fill="black"/>
<path d="M35.3626 7.89087C20.0122 7.89087 7.56238 20.3331 7.56238 35.686C7.56238 51.0389 20.0122 63.4861 35.3626 63.4861C50.7129 63.4861 63.164 51.0363 63.164 35.686C63.164 20.3356 50.7155 7.89087 35.3626 7.89087ZM30.8724 9.62178L33.4789 9.33414L35.3626 14.8336L37.2462 9.33414L39.8515 9.62178L40.1378 17.4363L38.1117 17.1487L37.9169 11.9305L36.0855 17.1487H34.6358L32.8031 11.9305L32.6097 17.1487L30.5847 17.4363L30.8724 9.62178ZM13.3227 22.4954C13.114 22.3249 12.9066 22.1556 12.6953 21.9863C12.6683 21.9675 12.6428 21.9467 12.6189 21.924L12.7284 21.7903C13.268 21.1132 13.8064 20.44 14.3498 19.7667C14.9786 18.9776 15.6077 18.1906 16.2373 17.4058C16.3646 17.2581 16.4791 17.1067 16.6 16.954C16.8143 16.6891 17.0949 16.4858 17.4133 16.3647C17.6629 16.2727 17.9293 16.2345 18.1947 16.2527C18.4602 16.2709 18.7188 16.3451 18.9535 16.4703C19.1883 16.5956 19.3939 16.7691 19.5568 16.9794C19.7198 17.1898 19.8363 17.4323 19.8989 17.6909C19.9767 18.037 19.9614 18.3975 19.8544 18.7358C19.9015 18.6976 19.946 18.6556 19.9931 18.6187C20.2894 18.4 20.6378 18.263 21.0037 18.2212C21.3695 18.1794 21.7399 18.2344 22.0778 18.3806C22.4158 18.5269 22.7094 18.7592 22.9294 19.0545C23.1494 19.3498 23.288 19.6976 23.3315 20.0632C23.3627 20.3421 23.3393 20.6244 23.2627 20.8943C23.1037 21.4149 22.7346 21.8107 22.4011 22.2218C21.7554 23.0312 21.1089 23.8373 20.4615 24.64C19.9257 25.3158 19.3835 25.9865 18.8464 26.6611C18.8044 26.712 18.7662 26.7616 18.7191 26.81C18.7115 26.8227 18.6657 26.7743 18.6567 26.7654C18.4557 26.6038 18.2558 26.4472 18.056 26.2856L15.6989 24.3981C14.9111 23.7669 14.1182 23.1254 13.3227 22.4954ZM35.3626 53.0638C31.9258 53.0643 28.566 52.0456 25.7081 50.1366C22.8502 48.2276 20.6227 45.514 19.307 42.339C17.9914 39.164 17.6469 35.6701 18.317 32.2993C18.987 28.9284 20.6417 25.832 23.0716 23.4015C25.5015 20.9711 28.5976 19.3157 31.9683 18.6449C35.339 17.9741 38.8329 18.3179 42.0083 19.6328C45.1836 20.9477 47.8977 23.1747 49.8073 26.0321C51.7169 28.8896 52.7363 32.2492 52.7366 35.686C52.7369 40.2943 50.9067 44.714 47.6484 47.973C44.3902 51.2319 39.9709 53.0631 35.3626 53.0638ZM51.908 26.7043L50.9102 24.9963L54.3466 20.4832L49.1958 22.8467L47.7487 21.5091L52.4477 15.3338L53.8973 16.6727L51.1851 20.2363L55.5213 18.2458L56.794 19.8265L53.9011 23.6269L57.9738 21.7572L58.9704 23.4665L51.908 26.7043Z" fill="black"/>
<path d="M18.7076 19.2958C18.7472 19.1394 18.7425 18.975 18.6941 18.8211C18.6457 18.6672 18.5555 18.5298 18.4335 18.4242C18.3115 18.3186 18.1626 18.249 18.0033 18.2231C17.8441 18.1972 17.6808 18.2161 17.5316 18.2776C17.2885 18.3794 17.1422 18.5932 16.9818 18.7956C16.3709 19.5592 15.7613 20.3165 15.1555 21.0789C15.1067 21.1346 15.0608 21.1928 15.018 21.2532L15.3909 21.5523C15.7167 21.8171 16.0464 22.0754 16.3709 22.3376C16.6942 21.9367 17.0073 21.5345 17.3331 21.1323C17.6589 20.7301 17.9758 20.3331 18.2978 19.9334C18.4569 19.7272 18.6364 19.5491 18.7076 19.2958Z" fill="black"/>
<path d="M35.3613 18.5818V35.686H18.2596C18.3792 31.1878 20.2193 26.9068 23.4009 23.7248C26.5824 20.5428 30.8632 18.702 35.3613 18.5818Z" fill="url(#paint0_linear_11_583)"/>
<path d="M52.4668 35.686C52.3462 40.1846 50.5054 44.4658 47.3232 47.6479C44.1411 50.8301 39.8599 52.6709 35.3613 52.7915V35.686H52.4668Z" fill="url(#paint1_linear_11_583)"/>
<defs>
<linearGradient id="paint0_linear_11_583" x1="23.4142" y1="23.6511" x2="35.3918" y2="35.9367" gradientUnits="userSpaceOnUse">
<stop stop-color="#46BEE1"/>
<stop offset="0.62" stop-color="#3394BC"/>
<stop offset="1" stop-color="#2678A3"/>
</linearGradient>
<linearGradient id="paint1_linear_11_583" x1="35.0851" y1="36.2168" x2="47.745" y2="47.7197" gradientUnits="userSpaceOnUse">
<stop stop-color="#3091BA"/>
<stop offset="1" stop-color="#00448B"/>
</linearGradient>
</defs>
</svg>
