<svg width="70" height="70" viewBox="0 0 70 70" fill="none" xmlns="http://www.w3.org/2000/svg">
<path d="M47.04 17.29C45.85 22.645 45.29 25.1475 44.38 28.9975C43.47 32.8475 42.63 36.19 41.4225 37.87C40.9365 38.5179 40.3154 39.0523 39.6022 39.436C38.889 39.8198 38.1009 40.0438 37.2925 40.0925C36.5326 40.1955 35.7668 40.2481 35 40.25C34.2168 40.2683 33.4334 40.2332 32.655 40.145C31.8443 40.0954 31.054 39.871 30.3382 39.4874C29.6223 39.1038 28.9978 38.57 28.5075 37.9225C27.2475 36.1725 26.5125 32.7775 25.6025 29.05C24.6925 25.3225 24.1325 22.6975 22.9425 17.3425H21.1925C20.4575 17.3425 19.8975 17.4475 19.3025 17.5175C19.3025 17.5175 20.0025 28.56 20.3175 33.2675C20.6325 37.975 21.2275 46.4975 21.7525 52.7625C22.6501 52.9082 23.5561 52.9959 24.465 53.025C26.215 53.13 27.02 53.13 27.02 53.13C27.5986 50.289 28.4847 47.5194 29.6625 44.87C29.9729 44.3983 30.3929 44.0086 30.8866 43.7344C31.3802 43.4601 31.9329 43.3094 32.4975 43.295C33.3335 43.1892 34.1749 43.1307 35.0175 43.12C35.8666 43.1114 36.7151 43.1699 37.555 43.295C38.1195 43.3094 38.6723 43.4601 39.1659 43.7344C39.6596 44.0086 40.0796 44.3983 40.39 44.87C41.5691 47.5173 42.4495 50.2877 43.015 53.13C43.015 53.13 43.8025 53.13 45.5525 53.025C47.3025 52.92 48.2475 52.7625 48.2475 52.7625C48.7725 46.4975 49.3675 38.2025 49.6825 33.2675C49.9975 28.595 50.715 17.5175 50.715 17.5175C50.1025 17.5175 49.5075 17.3775 48.8075 17.3425H47.0575" fill="black"/>
<path d="M60.97 23.8C60.27 16.8 55.5625 15.3125 51.4675 14.6125C49.385 14.2625 45.71 13.9825 43.365 13.8775C41.02 13.7725 36.365 13.6675 34.965 13.6675C33.565 13.6675 28.6475 13.6675 26.5825 13.8775C24.2375 13.9825 20.545 14.2625 18.48 14.6125C14.3675 15.3125 9.73 16.7825 8.9775 23.8C8.77708 26.1276 8.70697 28.4646 8.7675 30.8C8.7675 35.2625 9.2225 38.2375 9.4325 40.355C9.6984 43.0368 10.202 45.6898 10.9375 48.2825C11.3833 50.2214 12.4605 51.9573 14 53.2175C15.8385 54.4324 17.9251 55.2216 20.1075 55.5275C25.0316 56.1163 29.9886 56.3852 34.9475 56.3325C39.9067 56.4027 44.865 56.1338 49.7875 55.5275C52.0119 55.2599 54.1411 54.4682 56 53.2175C57.5493 51.9905 58.6504 50.2866 59.1325 48.37C59.8651 45.7766 60.3687 43.1239 60.6375 40.4425C60.8475 38.36 61.2325 35.35 61.3025 30.8875C61.3025 28.1925 61.1975 25.6375 61.0225 23.8875M58.4325 35.6825C58.2665 39.5301 57.7214 43.3519 56.805 47.0925C56.3865 48.7893 55.5015 50.3351 54.25 51.555C52.5108 52.9088 50.4104 53.7186 48.2125 53.8825C43.8204 54.376 39.402 54.5981 34.9825 54.5475C30.563 54.5981 26.1446 54.376 21.7525 53.8825C19.5663 53.7139 17.4784 52.9043 15.75 51.555C14.4923 50.3078 13.6126 48.7305 13.2125 47.005C12.2865 43.2668 11.747 39.4434 11.6025 35.595C11.3426 31.665 11.4011 27.7205 11.7775 23.8C12.3025 19.39 14.4725 17.185 19.145 16.3625C21.7582 15.9427 24.3934 15.6739 27.0375 15.5575C29.295 15.4175 32.935 15.3475 35 15.3475C37.065 15.3475 40.7225 15.3475 42.9275 15.5575C45.5481 15.6773 48.1599 15.946 50.75 16.3625C55.405 17.22 57.575 19.425 58.1525 23.8C58.5294 27.7205 58.5879 31.665 58.3275 35.595" fill="black"/>
</svg>
