<svg width="71" height="70" viewBox="0 0 71 70" fill="none" xmlns="http://www.w3.org/2000/svg">
<path d="M35.0928 3.87671L26.1086 19.4485L35.0928 34.9453L44.1432 19.4485L35.0928 3.87671Z" fill="#F70000"/>
<path d="M35.0928 34.9453L44.1432 50.4611H62.1153L53.135 34.9453H35.0928Z" fill="#F70000"/>
<path d="M8.13516 50.4611H26.1086L35.0928 34.9453H17.1244L8.13516 50.4611Z" fill="#F70000"/>
<path d="M14.7813 58.3533L13.3215 54.9513H11.8452V62.4197H13.1802V57.5527L14.7813 61.0858L16.4626 57.5527V62.4197H17.8002V54.9513H16.3302L14.7813 58.3533Z" fill="black"/>
<path d="M20.3355 54.9513H18.9979V62.4184H20.3355V54.9513Z" fill="black"/>
<path d="M20.9426 56.0917H22.5437V62.4197H23.8814V56.0917H25.4888V54.9513H20.9426V56.0917Z" fill="black"/>
<path d="M28.4275 58.086C27.361 57.5527 26.9537 57.2867 26.9537 56.7547C26.9537 56.2813 27.2859 56.0178 27.8904 56.0178C28.5612 56.0178 28.8933 56.6198 28.8933 57.2244H30.2424C30.1737 55.9516 29.5717 54.8889 27.8968 54.8889C26.3593 54.8889 25.625 55.6895 25.625 56.8222C25.625 57.8849 26.2957 58.4869 27.2923 59.0826C28.7075 59.8844 29.0321 60.088 29.0321 60.5487C29.0321 61.0858 28.6363 61.4155 27.9604 61.4155C27.1624 61.4155 26.8303 60.7536 26.8303 60.088H25.5575C25.6275 61.488 26.2308 62.6169 27.963 62.6169C29.2357 62.6169 30.3723 61.8864 30.3723 60.4876C30.3697 59.2836 29.6303 58.7555 28.4275 58.086Z" fill="black"/>
<path d="M34.6601 60.088C34.6601 60.8886 34.2783 61.3493 33.5388 61.3493C32.6581 61.3493 32.2559 60.8886 32.2559 60.088V54.9513H30.9284V60.088C30.9284 62.0798 32.3284 62.552 33.5388 62.552C34.6601 62.552 36.0041 62.0213 36.0041 60.088V54.9513H34.6601V60.088Z" fill="black"/>
<path d="M40.5515 58.4869C40.8863 58.4157 41.6232 57.82 41.6232 56.8222C41.6232 55.6233 40.7475 54.9513 39.3488 54.9513H36.8784V62.4197H39.6212C40.9537 62.4197 41.893 61.5529 41.893 60.3502C41.9049 59.9354 41.78 59.5283 41.5376 59.1915C41.2952 58.8548 40.9487 58.6072 40.5515 58.4869ZM39.2788 61.2869H38.2059V56.0942H39.2139C39.8184 56.0942 40.2804 56.3564 40.2804 57.0246C40.2804 57.6927 39.8795 57.9562 39.2139 57.9562H38.6832V59.1526H39.2139C40.0132 59.1526 40.4866 59.4249 40.4866 60.1529C40.4854 60.9547 40.0157 61.2844 39.2788 61.2844V61.2869Z" fill="black"/>
<path d="M54.3899 57.8849H51.7184V54.9513H50.3197V62.4197H51.7184V59.15H54.4586V62.4197H55.7886V54.9513H54.3899V57.8849Z" fill="black"/>
<path d="M43.9637 54.9513H42.6248V62.4184H43.9637V54.9513Z" fill="black"/>
<path d="M58.4053 54.9513H57.0703V62.4184H58.4053V54.9513Z" fill="black"/>
<path d="M47.7183 58.0172C46.639 57.4203 46.2394 57.1505 46.2394 56.6859C46.2394 56.2214 46.6352 55.9554 47.1697 55.9554C47.8404 55.9554 48.1764 56.4874 48.2426 57.1505H49.509C49.4441 55.8892 48.8484 54.8188 47.1697 54.8188C45.6323 54.8188 44.8966 55.6232 44.8966 56.7547C44.8966 57.8199 45.5686 58.4156 46.5715 58.9565C47.9792 59.7507 48.3012 60.0154 48.3012 60.4838C48.3012 61.0119 47.9104 61.3454 47.2448 61.3454C46.4392 61.3454 46.0994 60.611 46.0994 59.9454H44.8266C44.8903 61.4116 45.4935 62.4807 47.2384 62.4807C48.5112 62.4807 49.6464 61.7463 49.6464 60.4176C49.6464 59.1499 48.9134 58.6879 47.7183 58.0172Z" fill="black"/>
</svg>
