<svg width="71" height="70" viewBox="0 0 71 70" fill="none" xmlns="http://www.w3.org/2000/svg">
<path d="M36.3323 5.98181C19.9752 5.98181 6.71216 19.2487 6.71216 35.6071C6.71216 51.9654 19.9752 65.226 36.3323 65.226C52.6894 65.226 65.9576 51.9654 65.9576 35.6071C65.9576 19.2487 52.6907 5.98181 36.3323 5.98181ZM36.2471 59.4109C23.0985 59.4109 12.4394 48.7505 12.4394 35.6033C12.4394 22.456 23.0985 11.7994 36.2471 11.7994C39.3738 11.7984 42.4701 12.4136 45.359 13.6097C48.248 14.8057 50.8729 16.5594 53.0838 18.7703C55.2948 20.9812 57.0484 23.6062 58.2445 26.4951C59.4406 29.384 60.0557 32.4803 60.0547 35.6071C60.0547 48.7544 49.3969 59.4147 36.2471 59.4147V59.4109Z" fill="url(#paint0_radial_11_502)"/>
<path d="M36.2471 9.56714C21.8652 9.56714 10.2071 21.2253 10.2071 35.6071C10.2071 49.989 21.8652 61.6471 36.2471 61.6471C50.6289 61.6471 62.2871 49.989 62.2871 35.6071C62.2871 21.2253 50.6289 9.56714 36.2471 9.56714ZM36.2471 59.4148C23.0985 59.4148 12.4394 48.7544 12.4394 35.6071C12.4394 22.4599 23.0985 11.7995 36.2471 11.7995C39.3738 11.7985 42.4701 12.4136 45.359 13.6097C48.248 14.8058 50.8729 16.5594 53.0838 18.7704C55.2948 20.9813 57.0484 23.6062 58.2445 26.4952C59.4406 29.3841 60.0557 32.4804 60.0547 35.6071C60.0547 48.7544 49.3969 59.4148 36.2471 59.4148Z" fill="url(#paint1_radial_11_502)"/>
<path d="M36.3323 61.7324C50.7609 61.7324 62.4576 50.0357 62.4576 35.6071C62.4576 21.1785 50.7609 9.48181 36.3323 9.48181C21.9037 9.48181 10.2071 21.1785 10.2071 35.6071C10.2071 50.0357 21.9037 61.7324 36.3323 61.7324Z" stroke="white" stroke-width="2.5416" stroke-miterlimit="10"/>
<path d="M68.6914 31.3244C68.6571 29.2804 67.084 29.2435 67.084 29.2435C66.8434 29.2053 62.604 28.7026 56.5356 28.098C43.2713 26.7833 29.3082 26.6764 16.53 27.7162C10.79 28.182 6.66126 28.9724 6.47544 29.0106C4.43144 29.3784 4.29398 30.814 4.29398 30.9057C3.83835 32.7549 4.11198 38.9009 4.29398 40.9793C4.43144 43.1977 6.24253 43.0157 6.33035 43.0589C6.50216 43.0958 10.51 43.7895 16.3238 44.3749C30.6522 45.8169 44.292 45.7635 56.5063 44.4729C62.6956 43.82 66.958 43.2091 66.958 43.2091C68.5985 43.0704 68.6303 41.1091 68.6303 41.0951C68.9422 38.2417 68.7029 31.3244 68.6914 31.3244Z" fill="url(#paint2_radial_11_502)"/>
<path d="M37.3785 45.6171C30.3424 45.6093 23.311 45.2482 16.3111 44.5353C10.6652 43.9676 6.5607 43.2727 6.29979 43.2167H6.28579C6.26714 43.2157 6.24844 43.2157 6.22979 43.2167C4.60706 43.12 4.19343 41.9555 4.13488 40.9945C3.94906 38.8831 3.67797 32.7778 4.13488 30.8853C4.1527 30.6727 4.35506 29.2307 6.4487 28.8578C6.48306 28.8502 10.6182 28.0395 16.516 27.5609C29.8461 26.5079 43.2433 26.6356 56.5509 27.9427C62.3812 28.5205 66.748 29.0322 67.0992 29.0882C67.2609 29.0996 68.8174 29.2562 68.8518 31.3282H68.8378C68.8683 31.5649 68.9129 32.3629 68.9422 35.1464C68.9638 37.044 68.9536 39.6149 68.7932 41.1065C68.7932 41.7035 68.4598 43.2473 66.9745 43.3733C66.9414 43.3733 62.6472 43.9905 56.5254 44.6371C50.1647 45.2987 43.7736 45.6258 37.3785 45.6171ZM6.3787 42.9024C6.71725 42.9724 10.7734 43.6533 16.3442 44.2133C30.3009 45.6196 43.8096 45.6527 56.4923 44.3125C62.6091 43.666 66.8969 43.0551 66.9389 43.0487C68.4305 42.9215 68.4662 41.1116 68.4662 41.0938C68.7449 38.5102 68.5743 32.508 68.5323 31.486V31.3269C68.5005 29.4598 67.14 29.4064 67.0827 29.4051H67.0611C66.8562 29.3733 62.646 28.8705 56.5216 28.2596C43.2335 26.9538 29.8559 26.826 16.5452 27.8778C10.6678 28.3551 6.55179 29.162 6.51361 29.1696C4.54343 29.5273 4.45815 30.8929 4.45815 30.9069V30.9438C4.01143 32.76 4.28379 38.9264 4.45815 40.9653C4.57143 42.7865 5.83397 42.8629 6.24888 42.8871C6.29256 42.8878 6.33606 42.8929 6.3787 42.9024Z" fill="url(#paint3_linear_11_502)"/>
<path d="M52.0849 33.4727C51.7298 32.2712 50.1313 32.3272 49.0227 32.3616C47.9855 32.387 46.7878 32.345 45.7136 32.3705C45.2858 32.3746 44.8644 32.4746 44.4804 32.6632C44.2868 32.7624 44.1187 32.905 43.9894 33.0799C43.86 33.2547 43.7728 33.4571 43.7345 33.6712C43.4647 35.5141 43.6264 37.4156 43.6353 39.2903C43.6416 39.6136 43.8733 39.83 44.2589 39.7727C44.6077 39.7256 44.9613 39.7256 45.3102 39.7727C45.6653 39.7994 45.8027 39.606 45.7951 39.2827C45.7575 38.4767 45.769 37.6691 45.8295 36.8645C47.2421 36.7892 48.6579 36.7921 50.0702 36.8734C50.2382 37.8916 50.0778 38.7443 50.1682 39.7269C50.8441 39.7616 51.5214 39.7582 52.1969 39.7167C52.1969 38.724 52.2656 37.7643 52.2084 36.7754C52.1384 35.6618 52.4107 34.5889 52.0849 33.4727ZM50.0142 35.2405C48.6651 35.2749 47.2231 35.294 45.8333 35.2278C45.79 33.6509 47.4 33.955 48.4233 33.9143C49.1576 33.88 50.2585 34.109 50.0078 35.2367L50.0142 35.2405Z" fill="black"/>
<path d="M36.3323 34.5978C38.3509 35.4505 40.3694 35.9138 42.206 36.9536C42.6107 37.1776 42.6107 37.8228 42.6349 38.2416C42.6603 38.6896 42.3803 39.1847 41.9845 39.4927C41.6943 39.7218 41.3049 39.7472 40.9307 39.7472C38.51 39.7472 36.0918 39.7472 33.6762 39.7472C33.5642 39.2623 33.6469 38.729 33.6291 38.1983C35.6298 38.1907 37.4651 38.1869 39.5142 38.1983C39.91 38.1983 39.8858 37.6892 39.5142 37.5619C37.9003 37.0427 36.5029 36.4445 34.926 35.9138C34.3673 35.7216 33.9078 35.3194 33.7627 34.7008C33.6571 34.319 33.5731 34.0747 33.7105 33.661C34.3469 31.8016 36.4838 32.4481 38.0378 32.3781C39.4874 32.3132 41.1254 32.3858 42.5903 32.3603C42.6782 32.9356 42.6209 33.3708 42.6158 33.9372C40.5463 33.9372 38.636 33.9576 36.5296 33.9372C36.102 33.9359 35.948 34.4348 36.3323 34.5978Z" fill="black"/>
<path d="M23.6509 38.1996C25.6541 38.1907 27.4983 38.1907 29.5423 38.1996C29.9381 38.1996 29.9038 37.6905 29.5423 37.5633C27.9311 37.0465 26.5387 36.4394 24.9605 35.9151C24.3992 35.7229 23.9423 35.3194 23.7896 34.7022C23.6954 34.3203 23.6025 34.076 23.7412 33.6623C24.3776 31.8029 26.5158 32.4494 28.0685 32.3769C29.5118 32.3145 31.1536 32.3871 32.6274 32.3591C32.6815 32.8816 32.6815 33.4083 32.6274 33.9309C30.6038 33.9589 28.6081 33.9373 26.5896 33.9449C26.4363 33.9402 26.2855 33.9848 26.1594 34.0722C25.9176 34.2287 26.1416 34.5673 26.3809 34.6271C27.8229 34.9949 29.1236 35.8094 30.5694 36.1162C32.0967 36.4445 33.624 38.0851 31.958 39.5525C31.8001 39.6925 31.8001 39.5614 31.6181 39.6722C31.4361 39.7829 31.314 39.7333 31.16 39.7333C28.6641 39.7536 26.1963 39.7333 23.6929 39.7447C23.5949 39.2611 23.6852 38.7265 23.6509 38.1996Z" fill="black"/>
<path d="M22.6696 39.7218C21.8971 39.788 21.3536 39.7078 20.5442 39.7651C20.4996 37.3163 20.534 34.8447 20.534 32.3833C21.2454 32.3451 21.9583 32.3451 22.6696 32.3833C22.6849 34.8303 22.6849 37.2765 22.6696 39.7218Z" fill="black"/>
<path d="M15.0791 38.6667C14.4656 37.3647 13.7949 36.2205 13.1942 34.902C13.0542 34.6016 12.5463 34.5545 12.5273 34.8944C12.47 36.4076 12.512 37.7733 12.512 39.2789C12.512 39.578 12.4522 39.8122 12.0665 39.7689C11.7849 39.7185 11.4967 39.7185 11.2151 39.7689C10.7913 39.8351 10.6449 39.6162 10.6576 39.2827C10.692 37.5187 10.6754 35.8247 10.6576 34.0887C10.6576 33.6051 10.7569 33.1036 11.1667 32.816C11.5086 32.582 11.9025 32.4349 12.3142 32.3877C12.7259 32.3404 13.1428 32.3944 13.5289 32.5449C14.0494 32.7307 14.3956 33.1533 14.6374 33.656C15.256 34.9809 15.9102 36.0678 16.5885 37.4894C16.8202 37.9769 17.4578 37.7669 17.4234 37.2349C17.3203 35.5294 17.412 34.0696 17.3954 32.4062C18.0662 32.3807 18.5765 32.3807 19.2396 32.4062C19.2536 34.342 19.2473 36.2982 19.2473 38.2302C19.2473 38.6375 19.0665 39.0829 18.7483 39.3056C17.6678 40.0744 15.6849 39.9547 15.0791 38.6667Z" fill="black"/>
<path d="M61.7195 39.0867C60.798 40.0387 58.7095 40.0819 57.9687 38.8779C57.1835 37.595 56.6095 36.1988 55.8802 34.9427C55.7898 34.7823 55.6625 34.5494 55.4869 34.6067C55.2795 34.6728 55.1916 34.9147 55.1916 35.1259C55.1764 36.6532 55.2069 38.197 55.1916 39.7167C54.5451 39.7879 54.0627 39.7167 53.378 39.7599C53.3564 38.3065 53.3347 36.7894 53.378 35.3385C53.4047 34.5748 53.1502 33.7043 53.6325 33.0845C54.2065 32.3565 55.2655 32.2598 56.1322 32.4939C56.6769 32.6479 57.0969 33.1048 57.3527 33.633C58.0082 34.9834 58.7336 36.2548 59.4311 37.6154C59.5927 37.9399 60.1349 37.7987 60.1235 37.4219C60.0891 35.6936 60.1298 34.0963 60.1133 32.3959C60.7687 32.3959 61.3262 32.3565 61.9702 32.4163C62.0045 34.277 61.9702 36.1658 61.9893 38.0163C61.988 38.3765 61.96 38.8436 61.7195 39.0867Z" fill="black"/>
<defs>
<radialGradient id="paint0_radial_11_502" cx="0" cy="0" r="1" gradientUnits="userSpaceOnUse" gradientTransform="translate(36.9738 34.4451) scale(29.7653 29.7653)">
<stop offset="0.88" stop-color="white"/>
<stop offset="1"/>
</radialGradient>
<radialGradient id="paint1_radial_11_502" cx="0" cy="0" r="1" gradientUnits="userSpaceOnUse" gradientTransform="translate(36.2471 35.6071) scale(26.04)">
<stop offset="0.92" stop-color="white"/>
<stop offset="1"/>
</radialGradient>
<radialGradient id="paint2_radial_11_502" cx="0" cy="0" r="1" gradientUnits="userSpaceOnUse" gradientTransform="translate(44.9093 45.2086) scale(49.3691)">
<stop offset="0.21" stop-color="white"/>
<stop offset="0.4" stop-color="#D3D3D3"/>
<stop offset="0.67" stop-color="#9B9B9B"/>
<stop offset="0.88" stop-color="#787878"/>
<stop offset="0.98" stop-color="#6B6B6B"/>
</radialGradient>
<linearGradient id="paint3_linear_11_502" x1="3.88415" y1="36.2333" x2="68.9523" y2="36.2333" gradientUnits="userSpaceOnUse">
<stop stop-color="white"/>
<stop offset="0.22"/>
<stop offset="0.38" stop-color="#C1C0C0"/>
<stop offset="0.72" stop-color="#212121"/>
<stop offset="0.98" stop-color="#D9DEE2"/>
</linearGradient>
</defs>
</svg>
