<svg width="71" height="70" viewBox="0 0 71 70" fill="none" xmlns="http://www.w3.org/2000/svg">
<path d="M33.8774 50.6176C34.2207 50.4448 34.5095 50.1803 34.7116 49.8534C34.9138 49.5266 35.0215 49.1501 35.0228 48.7657C35.0228 48.291 34.8077 46.6963 32.6186 46.6963H25.2559V54.5757C25.2712 54.5757 29.8059 54.6127 32.6148 54.5757C35.0597 54.5579 35.1679 53.0587 35.1679 52.3561C35.1679 51.0999 33.8952 50.6176 33.8774 50.6176ZM27.6206 48.291C27.6805 48.2528 30.3977 48.291 31.9479 48.291C32.4086 48.291 32.8388 48.5799 32.8388 49.0992C32.8388 49.6936 32.4685 49.9507 32.0243 49.9507C30.3188 49.9507 27.6805 49.9863 27.6206 49.9507V48.2961V48.291ZM32.0599 52.9848C30.1737 52.9848 27.6805 53.023 27.6206 52.9848V51.2908C27.6805 51.2514 30.5823 51.2692 32.0268 51.2514C32.1496 51.2417 32.273 51.2576 32.3893 51.298C32.5056 51.3384 32.6123 51.4025 32.7026 51.4862C32.7928 51.5699 32.8648 51.6715 32.9139 51.7844C32.963 51.8973 32.9881 52.0192 32.9877 52.1423C32.9877 52.7265 32.5245 52.9848 32.0599 52.9848Z" fill="black"/>
<path d="M55.7797 51.5454C55.837 51.5289 56.9646 50.7729 56.9646 49.509C56.9646 48.0301 56.3728 46.6989 54.1888 46.6989H47.157V54.5783H49.5268V52.1347C49.5433 52.1347 52.3739 52.1563 53.7828 52.1347C54.3937 52.1181 54.8952 52.771 54.8952 53.3196V54.5783H57.0053V53.3603C57.0053 52.2072 55.7963 51.5454 55.7797 51.5454ZM53.8566 50.6927C52.1537 50.6927 49.5624 50.7143 49.5293 50.6927V48.291C49.5866 48.2529 52.3077 48.291 53.8566 48.291C54.4484 48.291 54.8188 48.9872 54.8188 49.5434C54.8188 50.0996 54.4243 50.6888 53.8566 50.6888V50.6927Z" fill="black"/>
<path d="M39.354 46.6938L35.0967 54.5758H37.4652L38.3561 52.9849H43.3134L44.1674 54.5758H46.4978L42.2418 46.6938H39.354ZM39.205 51.2909L40.7578 48.4388L42.3843 51.2909H39.205Z" fill="black"/>
<path d="M65.5822 46.6938C65.623 46.7523 65.5822 50.1378 65.5504 52.3193C65.5504 52.6183 65.4397 52.9849 64.9955 52.9849H60.8884C60.4035 52.9849 60.2253 52.7049 60.2253 52.3562C60.2253 49.9138 60.1273 46.7307 60.1846 46.6531H57.8517C57.8173 46.7116 57.8173 50.4713 57.8517 52.9467C57.8708 54.1647 59.1512 54.5758 60.5932 54.5758C62.6295 54.5758 63.7368 54.6127 65.9997 54.5758C67.1821 54.5554 67.9775 53.9318 67.9559 52.9467C67.9393 50.7691 67.9202 46.6938 67.9202 46.6938H65.5822Z" fill="black"/>
<path d="M11.8236 49.6936C9.93483 49.5994 7.63883 49.621 6.23374 49.5434C5.45737 49.5065 5.45737 48.0276 6.30756 48.0276H10.6425C11.2317 48.0276 11.2317 48.6728 11.2317 48.6945H13.3776C13.3406 48.6016 13.6003 46.4036 11.527 46.4036H5.27156C4.2381 46.4036 3.48974 47.0323 3.48974 47.8036V49.4683C3.48974 50.5476 4.45192 51.063 5.78065 51.1025C7.74065 51.1508 8.92556 51.2107 10.4821 51.287C11.7777 51.3583 11.5919 52.9657 10.4821 52.9874C9.00192 53.0256 8.07792 52.9874 6.45137 52.9874C5.5261 52.9874 5.56046 52.0608 5.56046 52.0608H3.42356C3.38282 52.3065 3.38282 52.5572 3.42356 52.8028C3.49172 53.2946 3.73538 53.7452 4.10961 54.0715C4.48385 54.3978 4.96342 54.5778 5.45992 54.5783H11.6377C12.5783 54.5783 13.5468 54.0603 13.5239 52.9492C13.5239 52.9492 13.4857 51.3227 13.4857 51.287C13.4896 50.3248 12.7106 49.7483 11.8236 49.6936Z" fill="black"/>
<path d="M21.9952 46.6938C22.0347 46.7523 22.0347 50.1378 21.9952 52.3193C21.9952 52.6183 21.8832 52.9849 21.4441 52.9849H17.2988C16.8547 52.9849 16.6307 52.7049 16.6307 52.3562C16.6307 49.9138 16.595 46.7154 16.6307 46.6531H14.2621C14.2265 46.7116 14.2787 50.4713 14.3003 52.9467C14.3194 54.1507 15.5616 54.5758 17.0023 54.5758C19.0705 54.5758 20.1841 54.6127 22.4063 54.5758C23.5887 54.5554 24.4198 53.9318 24.4032 52.9467C24.3816 50.7691 24.3663 46.6938 24.3663 46.6938H21.9952Z" fill="black"/>
<path d="M51.9921 16.8394C47.5516 14.2214 41.5061 12.4956 34.9618 12.4956C28.453 12.4956 22.4458 14.2303 18.0129 16.8458C13.3585 19.6076 10.4236 23.3558 10.4236 27.1676C10.4236 30.9794 13.3509 34.6767 17.981 37.4042C22.4203 40.0056 28.4479 41.7212 34.9503 41.7212C41.5239 41.7212 47.5643 40.0272 52.015 37.4207C56.6821 34.6843 59.6196 30.9769 59.6196 27.1676C59.6196 23.3583 56.6656 19.6 51.9921 16.8394ZM51.6612 36.7945C47.3072 39.3323 41.3903 41.0034 34.9618 41.0034C28.5701 41.0034 22.6838 39.3323 18.3539 36.7945C13.9236 34.1918 11.1439 30.7058 11.1439 27.1676C11.1439 23.6294 13.9439 20.0951 18.3769 17.4682C22.7041 14.9049 28.5867 13.2045 34.9618 13.2045C41.3738 13.2045 47.2843 14.8871 51.6269 17.4631C56.0814 20.09 58.8979 23.6243 58.8979 27.1676C58.8979 30.7109 56.1018 34.1969 51.6612 36.7945Z" fill="url(#paint0_radial_11_556)" stroke="black" stroke-width="0.518218" stroke-miterlimit="10"/>
<path d="M58.8979 27.1676C58.8979 30.7057 56.0979 34.1968 51.6612 36.7945C47.3072 39.3323 41.3903 41.0034 34.9617 41.0034C28.5701 41.0034 22.6837 39.3323 18.3539 36.7945C13.9236 34.1917 11.1439 30.7057 11.1439 27.1676C11.1439 23.6294 13.9439 20.095 18.3768 17.4681C22.7041 14.9048 28.5866 13.2045 34.9617 13.2045C41.3737 13.2045 47.2843 14.887 51.6268 17.463C56.0852 20.0899 58.8979 23.6243 58.8979 27.1676Z" fill="url(#paint1_radial_11_556)"/>
<path d="M25.9356 16.343L23.6548 22.1148L13.5519 24.2861L23.6548 26.437L26.0552 32.5805L28.4619 26.5681L39.4087 24.2861L28.3398 21.8832L25.9356 16.343Z" fill="url(#paint2_radial_11_556)"/>
<path d="M47.8392 18.0435L46.863 20.5125L42.5408 21.4416L46.863 22.3618L47.8901 24.99L48.9197 22.4178L53.6021 21.4416L48.8676 20.4133L47.8392 18.0435Z" fill="url(#paint3_radial_11_556)"/>
<path d="M39.4112 25.1376L38.4363 27.6067L34.1141 28.5358L38.4363 29.4559L39.4621 32.0841L40.4917 29.5119L45.1753 28.5358L40.4395 27.5074L39.4112 25.1376Z" fill="url(#paint4_radial_11_556)"/>
<path d="M50.9548 25.1376L49.9786 27.6067L45.6564 28.5358L49.9786 29.4559L51.0057 32.0841L52.0353 29.5119L56.7177 28.5358L51.9832 27.5074L50.9548 25.1376Z" fill="url(#paint5_radial_11_556)"/>
<path d="M43.5119 30.8458L42.5357 33.3149L38.2136 34.244L42.5357 35.1642L43.5628 37.7924L44.5925 35.2202L49.2748 34.244L44.5403 33.2156L43.5119 30.8458Z" fill="url(#paint6_radial_11_556)"/>
<path d="M30.9947 31.6285L30.0198 34.0976L25.6976 35.0267L30.0198 35.9469L31.0456 38.5751L32.0752 36.0029L36.7588 35.0267L32.023 33.9984L30.9947 31.6285Z" fill="url(#paint7_radial_11_556)"/>
<defs>
<radialGradient id="paint0_radial_11_556" cx="0" cy="0" r="1" gradientUnits="userSpaceOnUse" gradientTransform="translate(35.0216 27.1078) scale(20.2313)">
<stop stop-color="white"/>
<stop offset="0.13" stop-color="#F9F9F9"/>
<stop offset="0.3" stop-color="#E9E9E9"/>
<stop offset="0.5" stop-color="#CECECE"/>
<stop offset="0.71" stop-color="#A8A8A8"/>
<stop offset="0.93" stop-color="#787878"/>
<stop offset="0.98" stop-color="#6B6B6B"/>
</radialGradient>
<radialGradient id="paint1_radial_11_556" cx="0" cy="0" r="1" gradientUnits="userSpaceOnUse" gradientTransform="translate(27.3888 22.3413) rotate(-164.291) scale(34.618 31.4225)">
<stop offset="0.49" stop-color="#0995D0"/>
<stop offset="0.61" stop-color="#0993CD"/>
<stop offset="0.68" stop-color="#0B8DC4"/>
<stop offset="0.75" stop-color="#0D83B5"/>
<stop offset="0.81" stop-color="#10759F"/>
<stop offset="0.87" stop-color="#146283"/>
<stop offset="0.92" stop-color="#184B60"/>
<stop offset="0.97" stop-color="#1E3038"/>
<stop offset="1" stop-color="#212121"/>
</radialGradient>
<radialGradient id="paint2_radial_11_556" cx="0" cy="0" r="1" gradientUnits="userSpaceOnUse" gradientTransform="translate(24.3701 23.539) scale(14.7395)">
<stop stop-color="white"/>
<stop offset="0.13" stop-color="#F9F9F9"/>
<stop offset="0.3" stop-color="#E9E9E9"/>
<stop offset="0.5" stop-color="#CECECE"/>
<stop offset="0.71" stop-color="#A8A8A8"/>
<stop offset="0.93" stop-color="#787878"/>
<stop offset="0.98" stop-color="#6B6B6B"/>
</radialGradient>
<radialGradient id="paint3_radial_11_556" cx="0" cy="0" r="1" gradientUnits="userSpaceOnUse" gradientTransform="translate(47.1685 21.1222) scale(6.30636)">
<stop stop-color="white"/>
<stop offset="0.13" stop-color="#F9F9F9"/>
<stop offset="0.3" stop-color="#E9E9E9"/>
<stop offset="0.5" stop-color="#CECECE"/>
<stop offset="0.71" stop-color="#A8A8A8"/>
<stop offset="0.93" stop-color="#787878"/>
<stop offset="0.98" stop-color="#6B6B6B"/>
</radialGradient>
<radialGradient id="paint4_radial_11_556" cx="0" cy="0" r="1" gradientUnits="userSpaceOnUse" gradientTransform="translate(38.7417 28.2163) scale(6.30636 6.30636)">
<stop stop-color="white"/>
<stop offset="0.13" stop-color="#F9F9F9"/>
<stop offset="0.3" stop-color="#E9E9E9"/>
<stop offset="0.5" stop-color="#CECECE"/>
<stop offset="0.71" stop-color="#A8A8A8"/>
<stop offset="0.93" stop-color="#787878"/>
<stop offset="0.98" stop-color="#6B6B6B"/>
</radialGradient>
<radialGradient id="paint5_radial_11_556" cx="0" cy="0" r="1" gradientUnits="userSpaceOnUse" gradientTransform="translate(50.2841 28.2163) scale(6.30636)">
<stop stop-color="white"/>
<stop offset="0.13" stop-color="#F9F9F9"/>
<stop offset="0.3" stop-color="#E9E9E9"/>
<stop offset="0.5" stop-color="#CECECE"/>
<stop offset="0.71" stop-color="#A8A8A8"/>
<stop offset="0.93" stop-color="#787878"/>
<stop offset="0.98" stop-color="#6B6B6B"/>
</radialGradient>
<radialGradient id="paint6_radial_11_556" cx="0" cy="0" r="1" gradientUnits="userSpaceOnUse" gradientTransform="translate(42.8412 33.9233) scale(6.30636)">
<stop stop-color="white"/>
<stop offset="0.13" stop-color="#F9F9F9"/>
<stop offset="0.3" stop-color="#E9E9E9"/>
<stop offset="0.5" stop-color="#CECECE"/>
<stop offset="0.71" stop-color="#A8A8A8"/>
<stop offset="0.93" stop-color="#787878"/>
<stop offset="0.98" stop-color="#6B6B6B"/>
</radialGradient>
<radialGradient id="paint7_radial_11_556" cx="0" cy="0" r="1" gradientUnits="userSpaceOnUse" gradientTransform="translate(30.3252 34.7073) scale(6.30637)">
<stop stop-color="white"/>
<stop offset="0.13" stop-color="#F9F9F9"/>
<stop offset="0.3" stop-color="#E9E9E9"/>
<stop offset="0.5" stop-color="#CECECE"/>
<stop offset="0.71" stop-color="#A8A8A8"/>
<stop offset="0.93" stop-color="#787878"/>
<stop offset="0.98" stop-color="#6B6B6B"/>
</radialGradient>
</defs>
</svg>
