<svg width="70" height="70" viewBox="0 0 70 70" fill="none" xmlns="http://www.w3.org/2000/svg">
<path d="M47.1647 55.9592C47.1062 52.9963 44.7147 50.6061 41.8091 50.6035C41.1049 50.6014 40.4072 50.7384 39.756 51.0066C39.1049 51.2749 38.5132 51.6693 38.015 52.1669C37.5167 52.6646 37.1217 53.2558 36.8526 53.9066C36.5836 54.5574 36.4458 55.255 36.4471 55.9592C36.4407 58.8864 38.8258 61.2792 41.8091 61.3174C44.7147 61.2792 47.1062 58.8852 47.1647 55.9592ZM38.8475 55.9592C38.794 54.0768 40.1304 52.5648 41.8091 52.575C43.4153 52.5648 44.7466 54.0768 44.7644 55.9592C44.7466 57.8034 43.4153 59.3205 41.8091 59.3459C40.1304 59.3205 38.794 57.8034 38.8475 55.9592Z" fill="#CB0D15"/>
<path d="M53.2229 52.8575H56.3246V51.0299H47.7273V52.8575H50.9715V61.0335H53.2229V52.8575Z" fill="#CB0D15"/>
<path d="M59.0023 58.7758H63.0954L63.9431 61.0336H66.6158L62.5265 51.0364H59.7125L55.4807 61.04H58.1636L59.0023 58.7758ZM61.1227 53.4215L62.5227 57.0869H59.7113L61.1227 53.4215Z" fill="#CB0D15"/>
<path d="M9.52001 61.0335H11.7753V52.8575H14.8795V51.0299H6.41583V52.8575H9.52001V61.0335Z" fill="#CB0D15"/>
<path d="M26.1558 55.9593C26.1151 52.9964 23.7211 50.6062 20.7964 50.6036C19.3756 50.6036 18.0131 51.168 17.0085 52.1726C16.0038 53.1773 15.4395 54.5398 15.4395 55.9605C15.4395 57.3813 16.0038 58.7438 17.0085 59.7485C18.0131 60.7531 19.3756 61.3175 20.7964 61.3175C22.2098 61.2926 23.5584 60.7202 24.5581 59.7207C25.5579 58.7212 26.1306 57.3727 26.1558 55.9593ZM17.8411 55.9593C17.8029 54.0769 19.1342 52.5649 20.7976 52.5751C22.428 52.5649 23.7567 54.0769 23.758 55.9593C23.758 57.8035 22.428 59.3205 20.7976 59.346C19.1342 59.3205 17.8029 57.8035 17.8411 55.9593Z" fill="#CB0D15"/>
<path d="M31.2315 61.0335H32.3591V57.2268L36.3071 51.0299H33.7693L31.2315 55.2554L28.8336 51.0299H26.1558L30.1051 57.2268V61.0335H31.2315Z" fill="#CB0D15"/>
<path d="M62.2097 25.7091C61.6268 23.9502 60.6048 22.3631 59.3626 21C57.946 19.4434 56.2457 18.1567 54.4346 17.0953C52.3553 15.8936 50.1427 14.939 47.8418 14.2507C45.2872 13.4782 42.6609 12.9665 40.0031 12.7234C38.6455 12.5962 37.2842 12.5325 35.9189 12.5325C33.1375 12.5278 30.3623 12.7967 27.6335 13.3356C25.1473 13.8215 22.7204 14.5725 20.3942 15.5756C18.3267 16.4586 16.384 17.6092 14.616 18.998C13.0888 20.2185 11.7206 21.6644 10.7151 23.3469C9.7857 24.8692 9.23328 26.5915 9.10384 28.3704C9.00532 30.1395 9.34913 31.9054 10.1042 33.5084C10.8997 35.2253 12.0948 36.7334 13.4718 38.0202C15.0589 39.5042 16.8942 40.7094 18.8275 41.692C21.032 42.7972 23.353 43.6532 25.7473 44.2438C28.3903 44.9037 31.0925 45.2985 33.8138 45.4224C36.6345 45.5578 39.4616 45.4163 42.2546 44.9998C44.827 44.6275 47.3534 43.9877 49.7929 43.0907C51.9743 42.2963 54.0489 41.2348 55.9695 39.9305C57.624 38.7851 59.1513 37.4233 60.3502 35.8031C61.4231 34.3547 62.2275 32.6964 62.5648 30.9196C62.8906 29.1808 62.7684 27.3876 62.2097 25.7091ZM38.5369 14.826C40.5827 14.9322 42.6147 15.2236 44.6078 15.6965C46.0562 16.0542 47.5275 16.5276 48.7977 17.3282C49.7357 17.9187 50.7246 18.8287 50.6457 20.0416C50.5502 21.4976 49.0573 22.4267 47.8813 22.9893C46.2077 23.7911 44.3762 24.2111 42.5588 24.5293L42.2444 24.584C41.9555 22.8136 41.5571 21.0636 40.8622 19.4027C40.2729 17.9925 39.4711 16.5747 38.2671 15.5998C37.9133 15.3134 37.5569 15.0296 37.2018 14.7445L38.5369 14.826ZM36.5515 18.7791C37.3648 19.0336 37.9591 19.7298 38.3842 20.4336C39.1046 21.6376 39.48 23.0427 39.7257 24.4122C39.7511 24.5674 39.7778 24.7214 39.8046 24.8754C37.6196 25.0462 35.4259 25.0738 33.2373 24.9582C32.8377 24.9353 32.4406 24.9047 32.0422 24.8754C32.2369 23.7644 32.4698 22.6609 32.8898 21.6096C33.2449 20.7187 33.7349 19.8011 34.5049 19.2016C35.0815 18.746 35.8273 18.55 36.5451 18.774L36.5515 18.7791ZM21.322 19.2029C21.5371 18.5945 22.0017 18.1033 22.5018 17.7113C23.1981 17.1928 23.9643 16.7755 24.7775 16.4716C27.0786 15.5553 29.5833 15.148 32.032 14.924C32.8988 14.8438 33.7693 14.7967 34.6386 14.7471L33.6204 15.5591C33.1297 15.9577 32.6948 16.4205 32.3273 16.9349C31.2837 18.3731 30.6308 20.0836 30.1738 21.7891C29.9269 22.7093 29.7589 23.6422 29.5948 24.5789C28.0675 24.3078 26.5466 23.9985 25.0855 23.4576C23.94 23.0338 22.7309 22.4751 21.9037 21.5485C21.3169 20.9122 21 20.0442 21.3157 19.1978L21.322 19.2029ZM33.082 43.3274C31.5829 43.2171 30.0921 43.0126 28.6186 42.7153C27.2434 42.4376 25.888 42.0699 24.5611 41.6144C23.3222 41.1892 22.1163 40.6737 20.9529 40.0718C19.8869 39.5225 18.8693 38.8839 17.9111 38.1627C17.0308 37.5005 16.2205 36.7499 15.4929 35.9227C14.8233 35.1622 14.2516 34.3207 13.7913 33.418C13.3625 32.5681 13.0623 31.6592 12.9004 30.7211C12.7156 29.6144 12.7403 28.4829 12.9729 27.3853C13.2653 26.067 13.8155 24.8195 14.5918 23.7147C15.3862 22.5937 16.3314 21.5877 17.4008 20.7251L17.7686 20.4209C17.8297 20.7073 17.8831 20.9974 17.9582 21.28C18.0592 21.6459 18.2099 21.9962 18.4062 22.3211C18.8669 23.0949 19.5313 23.7351 20.2453 24.276C22.2206 25.7714 24.6578 26.6394 27.0417 27.2249C27.7048 27.3878 28.3742 27.5087 29.0411 27.6474C29.1009 27.6602 29.2473 27.6614 29.2957 27.7009C29.3211 27.7213 29.3058 27.7073 29.3135 27.7493C29.3239 27.9032 29.3209 28.0578 29.3046 28.2113C29.2855 29.2587 29.2906 30.3036 29.358 31.3498C29.526 33.9627 29.9791 36.6214 31.0062 39.0434C31.3935 39.9954 31.9118 40.8886 32.5462 41.6971C33.0171 42.28 33.5911 42.7458 34.1575 43.2307L34.3853 43.4254L33.082 43.3274ZM34.9682 38.4554C34.4651 38.1799 34.0359 37.7869 33.7171 37.31C33.2923 36.6931 32.9532 36.0213 32.7091 35.3131C32.0282 33.4396 31.766 31.4134 31.7037 29.4293C31.6935 29.1442 31.6897 28.8578 31.6897 28.5727C31.6897 28.5727 31.6769 28.1374 31.6782 28.0216C34.0305 28.2288 36.3947 28.2637 38.752 28.126C39.1988 28.0967 39.6429 28.0585 40.0897 28.0216C40.1075 29.8747 39.9929 31.7303 39.5806 33.5427C39.4006 34.3918 39.1372 35.221 38.794 36.0182C38.5269 36.6525 38.1604 37.2402 37.7084 37.7593C37.3634 38.1643 36.9092 38.4616 36.4 38.6158C35.9165 38.7378 35.405 38.679 34.9618 38.4503L34.9682 38.4554ZM59.0329 30.0364C58.945 30.9791 58.7132 31.9027 58.3457 32.7753C57.9559 33.6912 57.4471 34.5518 56.8324 35.3347C56.1665 36.1832 55.4112 36.9577 54.5797 37.6447C53.6747 38.3926 52.7059 39.0595 51.6842 39.6378C50.5666 40.2715 49.4025 40.8195 48.202 41.2771C46.9136 41.7696 45.5933 42.1744 44.2502 42.4887C42.8078 42.8272 41.3455 43.0741 39.872 43.2282C39.5017 43.2663 39.1288 43.3007 38.7571 43.3274L37.4653 43.4242C37.9438 43.0156 38.4504 42.6224 38.8882 42.168C39.5561 41.4492 40.1078 40.6308 40.5237 39.7422C41.6424 37.4513 42.1642 34.8867 42.4073 32.368C42.5256 31.1768 42.5741 29.9796 42.5524 28.7827L42.5409 28.196C42.5236 28.0447 42.5202 27.8922 42.5308 27.7404C42.5384 27.6996 42.5231 27.7136 42.5486 27.6933C42.5995 27.6525 42.7598 27.6538 42.8248 27.6411C43.134 27.5838 43.4446 27.5265 43.7526 27.4616C46.2662 26.9385 48.818 26.1291 50.9804 24.71C51.7901 24.2023 52.5079 23.5611 53.1033 22.8136C53.3457 22.5005 53.5484 22.1585 53.7066 21.7954C53.8301 21.4859 53.9242 21.1655 53.9878 20.8384C54.0184 20.6996 54.0489 20.5609 54.0808 20.4222C54.9831 21.1858 55.8626 21.9494 56.6135 22.8709C57.5032 23.9315 58.1858 25.1499 58.6257 26.4625C58.9989 27.6146 59.1374 28.8298 59.0329 30.0364Z" fill="url(#paint0_linear_11_528)"/>
<path d="M35.9279 45.4974C35.2236 45.4974 34.5185 45.4804 33.8126 45.4465C31.0886 45.3228 28.3838 44.9275 25.7384 44.2667C23.3424 43.6751 21.0197 42.8184 18.8135 41.7123C16.8622 40.744 15.0564 39.5067 13.4489 38.0367C11.9535 36.6367 10.8182 35.1171 10.0749 33.5147C9.31869 31.9062 8.97405 30.1349 9.07203 28.3601C9.2045 26.5764 9.75942 24.8497 10.6909 23.3227C11.6264 21.7598 12.9411 20.2936 14.6008 18.9649C16.3709 17.5748 18.3156 16.4229 20.3853 15.5387C22.7136 14.5351 25.1426 13.7837 27.6309 13.2974C30.3619 12.7584 33.1392 12.4894 35.9228 12.4943C37.2909 12.4943 38.6668 12.558 40.0095 12.684C42.6698 12.9267 45.2987 13.4384 47.8559 14.2112C50.1567 14.9001 52.3695 15.8542 54.4499 17.0545C56.4086 18.2 58.0695 19.5185 59.3855 20.9656C60.7308 22.4445 61.6904 24.0341 62.2402 25.6887C62.8017 27.3719 62.9252 29.1704 62.5991 30.9145C62.2784 32.6111 61.5313 34.2592 60.3795 35.812C59.2633 37.3151 57.7869 38.7061 55.9911 39.9471C54.0683 41.2522 51.9916 42.3149 49.8082 43.1111C47.3664 44.0091 44.8379 44.651 42.2635 45.0265C40.1661 45.3395 38.0485 45.4969 35.9279 45.4974ZM35.9189 12.558C33.1392 12.5533 30.3658 12.8218 27.6386 13.3598C25.1551 13.8454 22.7307 14.5954 20.4069 15.5972C18.3424 16.4793 16.4023 17.6282 14.6364 19.0145C12.9819 20.3381 11.6722 21.7992 10.7419 23.3558C9.8171 24.8743 9.26658 26.5909 9.13567 28.364C9.0383 30.1281 9.38074 31.8889 10.1322 33.488C10.8717 35.0827 12.0031 36.5972 13.4935 37.9896C14.9839 39.382 16.7682 40.6 18.8364 41.6563C21.0395 42.7583 23.3582 43.612 25.7499 44.2018C28.3909 44.8605 31.0909 45.2549 33.81 45.3791C36.6315 45.5184 39.4599 45.3812 42.2546 44.9692C44.8245 44.5951 47.3487 43.9553 49.7866 43.0601C51.9649 42.2658 54.0368 41.2056 55.9555 39.9038C57.7449 38.6667 59.2162 37.2807 60.3273 35.7827C61.4728 34.2376 62.2173 32.6009 62.5368 30.912C62.8612 29.1785 62.7385 27.3909 62.1804 25.718C61.6331 24.0711 60.6773 22.4903 59.3384 21.0178C58.0262 19.5758 56.3717 18.2636 54.418 17.1181C52.3407 15.9189 50.1308 14.9656 47.8329 14.2774C45.28 13.5052 42.6554 12.9935 39.9993 12.7501C38.6579 12.6216 37.2909 12.558 35.9189 12.558ZM37.3699 43.4585L37.4437 43.3949C37.5709 43.2918 37.688 43.1887 37.8115 43.0869C38.1794 42.7907 38.5312 42.4751 38.8653 42.1412C39.5324 41.4258 40.0826 40.6098 40.4957 39.7231C41.4757 37.7211 42.0904 35.3131 42.3755 32.3603C42.4932 31.1699 42.5417 29.9736 42.5206 28.7776L42.5091 28.1909C42.5091 28.1451 42.5091 28.0967 42.5002 28.0471C42.4868 27.9418 42.4868 27.8354 42.5002 27.7301C42.5006 27.7234 42.5006 27.7166 42.5002 27.7098C42.4996 27.7008 42.5015 27.6919 42.5058 27.684C42.5101 27.6761 42.5165 27.6696 42.5244 27.6652C42.592 27.6301 42.6672 27.6121 42.7433 27.6131L42.8171 27.6054L42.9291 27.5838C43.1964 27.5341 43.4739 27.482 43.7449 27.426C46.7308 26.8049 49.0904 25.8987 50.9613 24.6781C51.8713 24.0812 52.5637 23.464 53.0766 22.7894C53.3175 22.476 53.5189 22.134 53.676 21.7712C53.7993 21.464 53.8926 21.1456 53.9548 20.8205L54.0591 20.3534L54.0999 20.3865C54.9169 21.0738 55.8537 21.8871 56.6364 22.8391C57.5301 23.9023 58.2149 25.1247 58.6549 26.4421C59.0295 27.601 59.1688 28.8229 59.0648 30.0363C58.977 30.9822 58.7444 31.909 58.3749 32.7841C57.9838 33.7026 57.4738 34.5657 56.8579 35.3512C56.1899 36.2005 55.433 36.9757 54.6 37.6638C53.6937 38.4133 52.7231 39.0815 51.6995 39.6607C50.5806 40.2949 49.4153 40.8433 48.2135 41.3012C46.9238 41.7945 45.6022 42.2002 44.2579 42.5154C42.8142 42.8534 41.3506 43.1 39.8759 43.2536C39.5029 43.2931 39.1275 43.3274 38.7584 43.3541L37.3699 43.4585ZM42.5651 27.7149C42.5656 27.7234 42.5656 27.7318 42.5651 27.7403C42.553 27.8405 42.553 27.9418 42.5651 28.042C42.5651 28.0929 42.5728 28.1425 42.574 28.1896L42.5855 28.7763C42.6066 29.9749 42.5582 31.1737 42.4404 32.3667C42.154 35.3258 41.5368 37.7414 40.5542 39.7485C40.1374 40.6408 39.5834 41.4623 38.9124 42.1832C38.5766 42.5184 38.2231 42.8353 37.8535 43.1327C37.7555 43.2141 37.6575 43.2956 37.5608 43.3783L38.7559 43.2892C39.1237 43.2612 39.4979 43.2269 39.8708 43.1887C41.3425 43.0345 42.8031 42.788 44.2439 42.4505C45.5845 42.1353 46.9025 41.7309 48.1893 41.2401C49.3899 40.7838 50.5544 40.2376 51.6728 39.606C52.6934 39.0285 53.6611 38.3619 54.5644 37.6141C55.3944 36.929 56.148 36.1562 56.812 35.3092C57.4253 34.5288 57.9329 33.6708 58.3215 32.7574C58.6878 31.8882 58.9187 30.9679 59.0062 30.0287C59.1094 28.8256 58.9714 27.6141 58.6002 26.4651C58.1632 25.1549 57.4822 23.9392 56.5931 22.8823C55.8295 21.9507 54.9106 21.1514 54.1049 20.4731L54.0235 20.8383C53.9605 21.1674 53.8658 21.4896 53.7409 21.8005C53.5817 22.1666 53.3778 22.5116 53.1339 22.8276C52.6159 23.5072 51.9197 24.1309 51.0033 24.7367C49.1273 25.9636 46.7524 26.8647 43.7589 27.4909C43.4866 27.5469 43.2104 27.5991 42.9419 27.6487L42.8311 27.6703C42.8108 27.6703 42.7815 27.6767 42.7497 27.6792C42.6877 27.6791 42.6263 27.6912 42.5689 27.7149H42.5651ZM34.4642 43.4585L33.0731 43.3541C31.5726 43.2438 30.0806 43.0389 28.6059 42.7407C27.2293 42.4633 25.8725 42.0951 24.5446 41.6385C23.304 41.2125 22.0967 40.6952 20.9326 40.0909C19.8651 39.5413 18.8458 38.9027 17.8857 38.1818C17.0026 37.5182 16.1897 36.7659 15.4599 35.9367C14.7883 35.1745 14.2153 34.3308 13.7544 33.4256C13.3244 32.573 13.0242 31.661 12.8635 30.7198C12.6763 29.6094 12.7009 28.4737 12.936 27.3725C13.2272 26.0496 13.7788 24.798 14.5588 23.6905C15.3545 22.5667 16.3019 21.5585 17.374 20.6945L17.7813 20.3572L17.7928 20.4081L17.8462 20.6627C17.8869 20.8625 17.9302 21.0687 17.9837 21.2672C18.0829 21.6301 18.232 21.9775 18.4266 22.2994C18.8364 22.9867 19.4346 23.6231 20.258 24.2454C21.938 25.5181 24.1564 26.4791 27.0429 27.1892C27.51 27.3038 27.9899 27.3992 28.4544 27.4921L29.0411 27.6118C29.0639 27.616 29.0868 27.6189 29.1099 27.6207C29.1787 27.6208 29.2464 27.6378 29.3071 27.6703C29.3249 27.6843 29.3351 27.6932 29.3339 27.7174C29.333 27.7246 29.333 27.7319 29.3339 27.7391C29.346 27.8452 29.346 27.9524 29.3339 28.0585C29.3339 28.1094 29.3262 28.1591 29.3249 28.2061C29.302 29.4356 29.3249 30.4321 29.3784 31.3434C29.5731 34.3598 30.1115 36.8721 31.024 39.0256C31.409 39.9752 31.9257 40.866 32.5589 41.6716C32.9904 42.1714 33.4666 42.6307 33.9819 43.0436L34.4642 43.4585ZM33.0769 43.2918L34.2746 43.3809L33.9373 43.092C33.4185 42.6768 32.9391 42.2145 32.5055 41.7111C31.8688 40.9006 31.3491 40.0048 30.9617 39.0498C30.0466 36.8861 29.5057 34.37 29.3071 31.346C29.2473 30.4334 29.2308 29.4369 29.2537 28.2036C29.2537 28.1552 29.2537 28.1043 29.2626 28.0521C29.2747 27.9511 29.2747 27.849 29.2626 27.748C29.2626 27.7365 29.2626 27.7276 29.2626 27.7212C29.2104 27.6966 29.1535 27.6836 29.0959 27.6831L29.0208 27.6729L28.434 27.5532C27.9695 27.4603 27.4897 27.3649 27.02 27.2491C24.1259 26.5376 21.8986 25.5716 20.2122 24.2951C19.3824 23.6676 18.7779 23.0223 18.3642 22.3312C18.1668 22.0039 18.0152 21.651 17.9137 21.2825C17.8602 21.0814 17.8169 20.8752 17.7762 20.6741L17.7342 20.4731L17.4084 20.7454C16.3421 21.6056 15.3998 22.6091 14.6084 23.7274C13.8339 24.8283 13.2857 26.0721 12.9959 27.3865C12.7621 28.4797 12.7374 29.6073 12.9233 30.7096C13.0851 31.6453 13.3853 32.5517 13.8142 33.3989C14.2725 34.2971 14.8416 35.1343 15.5082 35.8909C16.2358 36.7169 17.0461 37.4662 17.9264 38.1271C18.8834 38.848 19.8997 39.4867 20.9644 40.0361C22.1249 40.6375 23.3279 41.1531 24.5637 41.5787C25.8893 42.0338 27.2434 42.4012 28.6173 42.6783C30.0897 42.9753 31.5791 43.1802 33.0769 43.2918ZM35.9037 38.71C35.5714 38.7089 35.2441 38.63 34.9479 38.4796C34.4909 38.2492 34.0786 37.87 33.6853 37.3189C33.2614 36.7027 32.9231 36.0318 32.6799 35.3245C32.0753 33.6598 31.7457 31.7316 31.6731 29.4305C31.6642 29.1467 31.6591 28.8591 31.6591 28.5727C31.6591 28.5561 31.6464 28.1374 31.6477 28.0203V27.986H31.682C34.0329 28.1944 36.396 28.2293 38.752 28.0903C39.1339 28.0661 39.5284 28.0331 39.9064 28.0012L40.1228 27.9821V28.0165C40.1431 30.1674 39.9828 31.9251 39.6137 33.5465C39.4311 34.3988 39.1646 35.231 38.8182 36.0309C38.5507 36.6688 38.182 37.2593 37.7262 37.7796C37.3782 38.1918 36.9172 38.4931 36.4 38.6463C36.238 38.689 36.0712 38.7103 35.9037 38.71ZM34.9759 38.4223C35.4101 38.6459 35.9109 38.7039 36.3848 38.5852C36.8914 38.4349 37.3434 38.1404 37.6855 37.7376C38.1356 37.2217 38.5 36.6368 38.7648 36.0054C39.1097 35.2106 39.3748 34.3835 39.5564 33.5363C39.9179 31.9276 40.0769 30.1852 40.0591 28.056L39.9128 28.0687C39.5309 28.1005 39.1415 28.1323 38.7559 28.1578C36.4083 28.2964 34.0538 28.2624 31.7113 28.056C31.7113 28.2036 31.7228 28.5651 31.7228 28.5714C31.7228 28.8578 31.7228 29.1454 31.7368 29.4292C31.8093 31.7201 32.1377 33.6445 32.7397 35.3029C32.9811 36.0047 33.3168 36.6705 33.7375 37.282C34.1193 37.8241 34.5291 38.1971 34.9759 38.4274V38.4223ZM35.7306 25.0587C34.8626 25.0587 34.0315 25.0358 33.2284 24.9874C32.9217 24.9696 32.6111 24.9467 32.3108 24.9251L31.9977 24.9021L32.004 24.8678C32.1911 23.8063 32.4228 22.6749 32.8542 21.5943C33.3111 20.4489 33.8279 19.6852 34.4795 19.1761C35.1082 18.6861 35.8642 18.5296 36.554 18.7447C37.2439 18.9598 37.8688 19.5236 38.4046 20.4171C39.018 21.4416 39.4457 22.708 39.7499 24.4071L39.8351 24.9047H39.7995C38.3473 25.0091 36.9995 25.06 35.7306 25.06V25.0587ZM32.0728 24.8449L32.3146 24.8627C32.6149 24.8843 32.9268 24.9072 33.2322 24.9251C35.4076 25.0404 37.5882 25.0136 39.76 24.8449L39.6875 24.4172C39.3846 22.7271 38.9595 21.4658 38.3499 20.4489C37.8229 19.5681 37.212 19.0158 36.5349 18.8045C35.8579 18.5932 35.1349 18.7485 34.5189 19.2245C33.8762 19.726 33.3659 20.4871 32.9128 21.6198C32.4889 22.6825 32.2573 23.8 32.0728 24.8449ZM42.2113 24.6171V24.5852C41.8689 22.4865 41.4311 20.8421 40.8317 19.4091C40.1113 17.6845 39.2649 16.4449 38.2468 15.6189C38.0088 15.4267 37.7708 15.2371 37.5315 15.0461L37.1013 14.7025L38.5369 14.7903C40.583 14.8937 42.6154 15.183 44.6091 15.6545C45.836 15.9574 47.4219 16.4181 48.8091 17.2912C50.0908 18.0994 50.7348 19.0476 50.6711 20.034C50.596 21.1794 49.686 22.1467 47.8889 23.0083C46.1249 23.8534 44.2044 24.262 42.5588 24.5509L42.2113 24.6171ZM37.2909 14.7776L37.5646 14.9965C37.8026 15.1874 38.0419 15.3783 38.2786 15.5692C39.3057 16.4016 40.1584 17.6501 40.8826 19.3874C41.4808 20.8167 41.9186 22.4572 42.2609 24.5445L42.5448 24.4949C44.1866 24.2072 46.102 23.8 47.8584 22.9587C49.6148 22.1174 50.5311 21.1527 50.6049 20.0314C50.6686 19.0552 50.0513 18.1529 48.7722 17.346C47.3926 16.4767 45.8131 16.0198 44.5913 15.7181C42.6 15.245 40.5696 14.9545 38.5255 14.8501L37.2909 14.7776ZM29.6151 24.6171H29.5833C27.8728 24.3091 26.4537 23.9985 25.0728 23.4869C24.0419 23.1051 22.7475 22.5425 21.8719 21.5778C21.2189 20.8561 21 19.964 21.2851 19.1914C21.4748 18.6556 21.8642 18.1631 22.4764 17.6858C23.1736 17.1629 23.9426 16.7432 24.7597 16.4398C26.7299 15.6558 29.0386 15.1671 32.0282 14.8909C32.7613 14.8234 33.5097 14.7801 34.2326 14.7381L34.7353 14.7089L33.642 15.582C33.1523 15.9808 32.7182 16.4435 32.3515 16.9578C31.4428 18.2089 30.7389 19.7921 30.2019 21.7941C29.96 22.6978 29.7971 23.5912 29.6228 24.5827L29.6151 24.6171ZM34.5368 14.7801L34.2339 14.798C33.5109 14.84 32.7639 14.8832 32.0308 14.9494C29.0488 15.2231 26.7451 15.7131 24.7762 16.4958C23.9654 16.7971 23.202 17.2133 22.5095 17.7316C21.9075 18.2012 21.5244 18.6849 21.3386 19.2092C21.0573 19.9729 21.2673 20.8167 21.9126 21.532C22.7793 22.4903 24.0648 23.0478 25.088 23.4271C26.4575 23.9361 27.8664 24.2403 29.5591 24.542C29.7309 23.5632 29.8939 22.6774 30.1344 21.7801C30.674 19.7641 31.3804 18.1732 32.298 16.9171C32.6682 16.3979 33.1061 15.9305 33.6 15.5272L34.5368 14.7801Z" fill="url(#paint1_radial_11_528)"/>
<defs>
<linearGradient id="paint0_linear_11_528" x1="28.0624" y1="10.9811" x2="44.0657" y2="47.6916" gradientUnits="userSpaceOnUse">
<stop stop-color="white"/>
<stop offset="0.13" stop-color="#DDDDDD"/>
<stop offset="0.33" stop-color="#B3B3B3"/>
<stop offset="0.51" stop-color="#939393"/>
<stop offset="0.69" stop-color="#7B7B7B"/>
<stop offset="0.86" stop-color="#6D6D6D"/>
<stop offset="1" stop-color="#686868"/>
</linearGradient>
<radialGradient id="paint1_radial_11_528" cx="0" cy="0" r="1" gradientUnits="userSpaceOnUse" gradientTransform="translate(35.9151 28.9952) scale(22.2918)">
<stop stop-color="white"/>
<stop offset="0.13" stop-color="#F9F9F9"/>
<stop offset="0.3" stop-color="#E9E9E9"/>
<stop offset="0.5" stop-color="#CECECE"/>
<stop offset="0.71" stop-color="#A8A8A8"/>
<stop offset="0.93" stop-color="#787878"/>
<stop offset="0.98" stop-color="#6B6B6B"/>
</radialGradient>
</defs>
</svg>
